<svg width="512" height="138" viewBox="0 0 512 138" fill="none" xmlns="http://www.w3.org/2000/svg">
<path d="M153.056 100L177.728 28.48H194.624L219.296 100H205.088L200 84.64H172.352L167.168 100H153.056ZM176.096 73.12H196.256L184.352 37.504H188L176.096 73.12ZM247.102 100.576C241.214 100.576 236.638 98.976 233.374 95.776C230.174 92.512 228.574 87.936 228.574 82.048V59.008H219.55V47.776H220.51C223.07 47.776 225.054 47.104 226.462 45.76C227.87 44.416 228.574 42.464 228.574 39.904V35.872H241.15V47.776H253.15V59.008H241.15V81.376C241.15 83.104 241.438 84.576 242.014 85.792C242.654 87.008 243.614 87.936 244.894 88.576C246.238 89.216 247.934 89.536 249.982 89.536C250.43 89.536 250.942 89.504 251.518 89.44C252.158 89.376 252.766 89.312 253.342 89.248V100C252.446 100.128 251.422 100.256 250.27 100.384C249.118 100.512 248.062 100.576 247.102 100.576ZM262.95 100V27.328H275.526V100H262.95ZM311.905 101.152C306.529 101.152 301.825 99.936 297.793 97.504C293.761 95.072 290.625 91.776 288.385 87.616C286.145 83.456 285.025 78.848 285.025 73.792C285.025 68.544 286.145 63.904 288.385 59.872C290.689 55.776 293.793 52.544 297.697 50.176C301.665 47.808 306.081 46.624 310.945 46.624C315.041 46.624 318.625 47.296 321.697 48.64C324.833 49.984 327.489 51.84 329.665 54.208C331.841 56.576 333.505 59.296 334.657 62.368C335.809 65.376 336.385 68.64 336.385 72.16C336.385 73.056 336.321 73.984 336.193 74.944C336.129 75.904 335.969 76.736 335.713 77.44H295.393V67.84H328.609L322.657 72.352C323.233 69.408 323.073 66.784 322.177 64.48C321.345 62.176 319.937 60.352 317.953 59.008C316.033 57.664 313.697 56.992 310.945 56.992C308.321 56.992 305.985 57.664 303.937 59.008C301.889 60.288 300.321 62.208 299.233 64.768C298.209 67.264 297.825 70.304 298.081 73.888C297.825 77.088 298.241 79.936 299.329 82.432C300.481 84.864 302.145 86.752 304.321 88.096C306.561 89.44 309.121 90.112 312.001 90.112C314.881 90.112 317.313 89.504 319.297 88.288C321.345 87.072 322.945 85.44 324.097 83.392L334.273 88.384C333.249 90.88 331.649 93.088 329.473 95.008C327.297 96.928 324.705 98.432 321.697 99.52C318.753 100.608 315.489 101.152 311.905 101.152ZM369.727 100.576C363.839 100.576 359.263 98.976 355.999 95.776C352.799 92.512 351.199 87.936 351.199 82.048V59.008H342.175V47.776H343.135C345.695 47.776 347.679 47.104 349.087 45.76C350.495 44.416 351.199 42.464 351.199 39.904V35.872H363.775V47.776H375.775V59.008H363.775V81.376C363.775 83.104 364.063 84.576 364.639 85.792C365.279 87.008 366.239 87.936 367.519 88.576C368.863 89.216 370.559 89.536 372.607 89.536C373.055 89.536 373.567 89.504 374.143 89.44C374.783 89.376 375.391 89.312 375.967 89.248V100C375.071 100.128 374.047 100.256 372.895 100.384C371.743 100.512 370.687 100.576 369.727 100.576ZM385.575 100V47.776H398.151V100H385.575ZM385.575 41.92V28.48H398.151V41.92H385.575ZM405.058 100L423.298 73.792L404.962 47.776H419.746L434.05 68.896H427.426L441.73 47.776H456.418L438.178 73.792L456.322 100H441.634L427.522 78.976H433.954L419.842 100H405.058Z" fill="black"/>
<path d="M160.112 131.388C158.976 131.388 157.92 131.18 156.944 130.764C155.984 130.348 155.152 129.772 154.448 129.036C153.76 128.284 153.256 127.412 152.936 126.42L155.648 125.244C156.08 126.268 156.704 127.076 157.52 127.668C158.336 128.244 159.256 128.532 160.28 128.532C160.856 128.532 161.352 128.444 161.768 128.268C162.2 128.076 162.528 127.82 162.752 127.5C162.992 127.18 163.112 126.796 163.112 126.348C163.112 125.82 162.952 125.388 162.632 125.052C162.328 124.7 161.864 124.428 161.24 124.236L157.808 123.132C156.416 122.7 155.368 122.052 154.664 121.188C153.96 120.324 153.608 119.308 153.608 118.14C153.608 117.116 153.856 116.212 154.352 115.428C154.864 114.644 155.568 114.036 156.464 113.604C157.376 113.156 158.416 112.932 159.584 112.932C160.656 112.932 161.64 113.124 162.536 113.508C163.432 113.876 164.2 114.396 164.84 115.068C165.496 115.724 165.984 116.5 166.304 117.396L163.616 118.596C163.264 117.7 162.736 117.012 162.032 116.532C161.328 116.036 160.512 115.788 159.584 115.788C159.04 115.788 158.56 115.884 158.144 116.076C157.728 116.252 157.4 116.508 157.16 116.844C156.936 117.164 156.824 117.548 156.824 117.996C156.824 118.492 156.984 118.932 157.304 119.316C157.624 119.684 158.112 119.972 158.768 120.18L162.056 121.212C163.48 121.676 164.544 122.316 165.248 123.132C165.968 123.948 166.328 124.956 166.328 126.156C166.328 127.18 166.064 128.084 165.536 128.868C165.008 129.652 164.28 130.268 163.352 130.716C162.424 131.164 161.344 131.388 160.112 131.388ZM169.003 135.9V118.044H171.955V120.636L171.667 119.988C172.115 119.284 172.723 118.74 173.491 118.356C174.259 117.956 175.147 117.756 176.155 117.756C177.387 117.756 178.499 118.06 179.491 118.668C180.483 119.276 181.267 120.092 181.843 121.116C182.435 122.14 182.731 123.292 182.731 124.572C182.731 125.836 182.443 126.988 181.867 128.028C181.291 129.068 180.507 129.892 179.515 130.5C178.523 131.092 177.395 131.388 176.131 131.388C175.187 131.388 174.315 131.204 173.515 130.836C172.731 130.452 172.107 129.908 171.643 129.204L172.147 128.58V135.9H169.003ZM175.771 128.508C176.491 128.508 177.131 128.34 177.691 128.004C178.251 127.668 178.683 127.204 178.987 126.612C179.307 126.02 179.467 125.34 179.467 124.572C179.467 123.804 179.307 123.132 178.987 122.556C178.683 121.964 178.251 121.5 177.691 121.164C177.131 120.812 176.491 120.636 175.771 120.636C175.083 120.636 174.459 120.804 173.899 121.14C173.355 121.476 172.923 121.948 172.603 122.556C172.299 123.148 172.147 123.82 172.147 124.572C172.147 125.34 172.299 126.02 172.603 126.612C172.923 127.204 173.355 127.668 173.899 128.004C174.459 128.34 175.083 128.508 175.771 128.508ZM191.512 131.388C190.232 131.388 189.064 131.092 188.008 130.5C186.968 129.908 186.136 129.1 185.512 128.076C184.904 127.052 184.6 125.884 184.6 124.572C184.6 123.26 184.904 122.092 185.512 121.068C186.136 120.044 186.968 119.236 188.008 118.644C189.048 118.052 190.216 117.756 191.512 117.756C192.792 117.756 193.952 118.052 194.992 118.644C196.032 119.236 196.856 120.044 197.464 121.068C198.088 122.076 198.4 123.244 198.4 124.572C198.4 125.884 198.088 127.052 197.464 128.076C196.84 129.1 196.008 129.908 194.968 130.5C193.928 131.092 192.776 131.388 191.512 131.388ZM191.512 128.508C192.216 128.508 192.832 128.34 193.36 128.004C193.904 127.668 194.328 127.204 194.632 126.612C194.952 126.004 195.112 125.324 195.112 124.572C195.112 123.804 194.952 123.132 194.632 122.556C194.328 121.964 193.904 121.5 193.36 121.164C192.832 120.812 192.216 120.636 191.512 120.636C190.792 120.636 190.16 120.812 189.616 121.164C189.072 121.5 188.64 121.964 188.32 122.556C188.016 123.132 187.864 123.804 187.864 124.572C187.864 125.324 188.016 126.004 188.32 126.612C188.64 127.204 189.072 127.668 189.616 128.004C190.16 128.34 190.792 128.508 191.512 128.508ZM200.784 131.1V118.044H203.736V120.948L203.496 120.516C203.8 119.54 204.272 118.86 204.912 118.476C205.568 118.092 206.352 117.9 207.264 117.9H208.032V120.684H206.904C206.008 120.684 205.288 120.964 204.744 121.524C204.2 122.068 203.928 122.836 203.928 123.828V131.1H200.784ZM216.064 131.244C214.592 131.244 213.448 130.844 212.632 130.044C211.832 129.228 211.432 128.084 211.432 126.612V120.852H209.176V118.044H209.416C210.056 118.044 210.552 117.876 210.904 117.54C211.256 117.204 211.432 116.716 211.432 116.076V115.068H214.576V118.044H217.576V120.852H214.576V126.444C214.576 126.876 214.648 127.244 214.792 127.548C214.952 127.852 215.192 128.084 215.512 128.244C215.848 128.404 216.272 128.484 216.784 128.484C216.896 128.484 217.024 128.476 217.168 128.46C217.328 128.444 217.48 128.428 217.624 128.412V131.1C217.4 131.132 217.144 131.164 216.856 131.196C216.568 131.228 216.304 131.244 216.064 131.244ZM224.556 131.1V113.22H227.82V121.02H235.428V113.22H238.716V131.1H235.428V123.9H227.82V131.1H224.556ZM246.55 131.388C245.542 131.388 244.662 131.164 243.91 130.716C243.174 130.268 242.606 129.644 242.206 128.844C241.822 128.044 241.63 127.108 241.63 126.036V118.044H244.774V125.772C244.774 126.316 244.878 126.796 245.086 127.212C245.31 127.612 245.622 127.932 246.022 128.172C246.438 128.396 246.902 128.508 247.414 128.508C247.926 128.508 248.382 128.396 248.782 128.172C249.182 127.932 249.494 127.604 249.718 127.188C249.942 126.772 250.054 126.276 250.054 125.7V118.044H253.198V131.1H250.222V128.532L250.486 128.988C250.182 129.788 249.678 130.388 248.974 130.788C248.286 131.188 247.478 131.388 246.55 131.388ZM263.248 131.388C262.304 131.388 261.432 131.204 260.632 130.836C259.848 130.452 259.224 129.908 258.76 129.204L259.072 128.58V131.1H256.12V112.932H259.264V120.636L258.784 119.988C259.232 119.284 259.84 118.74 260.608 118.356C261.376 117.956 262.264 117.756 263.272 117.756C264.504 117.756 265.616 118.06 266.608 118.668C267.6 119.276 268.384 120.092 268.96 121.116C269.552 122.14 269.848 123.292 269.848 124.572C269.848 125.836 269.56 126.988 268.984 128.028C268.408 129.068 267.624 129.892 266.632 130.5C265.64 131.092 264.512 131.388 263.248 131.388ZM262.888 128.508C263.608 128.508 264.248 128.34 264.808 128.004C265.368 127.668 265.8 127.204 266.104 126.612C266.424 126.02 266.584 125.34 266.584 124.572C266.584 123.804 266.424 123.132 266.104 122.556C265.8 121.964 265.368 121.5 264.808 121.164C264.248 120.812 263.608 120.636 262.888 120.636C262.2 120.636 261.576 120.804 261.016 121.14C260.472 121.476 260.04 121.948 259.72 122.556C259.416 123.148 259.264 123.82 259.264 124.572C259.264 125.34 259.416 126.02 259.72 126.612C260.04 127.204 260.472 127.668 261.016 128.004C261.576 128.34 262.2 128.508 262.888 128.508ZM276.775 131.1V113.22H280.039V131.1H276.775ZM283.214 131.1V118.044H286.166V120.612L285.926 120.156C286.23 119.372 286.726 118.78 287.414 118.38C288.118 117.964 288.934 117.756 289.862 117.756C290.822 117.756 291.67 117.964 292.406 118.38C293.158 118.796 293.742 119.38 294.158 120.132C294.574 120.868 294.782 121.724 294.782 122.7V131.1H291.638V123.444C291.638 122.868 291.526 122.372 291.302 121.956C291.078 121.54 290.766 121.22 290.366 120.996C289.982 120.756 289.526 120.636 288.998 120.636C288.486 120.636 288.03 120.756 287.63 120.996C287.23 121.22 286.918 121.54 286.694 121.956C286.47 122.372 286.358 122.868 286.358 123.444V131.1H283.214ZM303.393 131.244C301.921 131.244 300.777 130.844 299.961 130.044C299.161 129.228 298.761 128.084 298.761 126.612V120.852H296.505V118.044H296.745C297.385 118.044 297.881 117.876 298.233 117.54C298.585 117.204 298.761 116.716 298.761 116.076V115.068H301.905V118.044H304.905V120.852H301.905V126.444C301.905 126.876 301.977 127.244 302.121 127.548C302.281 127.852 302.521 128.084 302.841 128.244C303.177 128.404 303.601 128.484 304.113 128.484C304.225 128.484 304.353 128.476 304.497 128.46C304.657 128.444 304.809 128.428 304.953 128.412V131.1C304.729 131.132 304.473 131.164 304.185 131.196C303.897 131.228 303.633 131.244 303.393 131.244ZM313.429 131.388C312.085 131.388 310.909 131.084 309.901 130.476C308.893 129.868 308.109 129.044 307.549 128.004C306.989 126.964 306.709 125.812 306.709 124.548C306.709 123.236 306.989 122.076 307.549 121.068C308.125 120.044 308.901 119.236 309.877 118.644C310.869 118.052 311.973 117.756 313.189 117.756C314.213 117.756 315.109 117.924 315.877 118.26C316.661 118.596 317.325 119.06 317.869 119.652C318.413 120.244 318.829 120.924 319.117 121.692C319.405 122.444 319.549 123.26 319.549 124.14C319.549 124.364 319.533 124.596 319.501 124.836C319.485 125.076 319.445 125.284 319.381 125.46H309.301V123.06H317.605L316.117 124.188C316.261 123.452 316.221 122.796 315.997 122.22C315.789 121.644 315.437 121.188 314.941 120.852C314.461 120.516 313.877 120.348 313.189 120.348C312.533 120.348 311.949 120.516 311.437 120.852C310.925 121.172 310.533 121.652 310.261 122.292C310.005 122.916 309.909 123.676 309.973 124.572C309.909 125.372 310.013 126.084 310.285 126.708C310.573 127.316 310.989 127.788 311.533 128.124C312.093 128.46 312.733 128.628 313.453 128.628C314.173 128.628 314.781 128.476 315.277 128.172C315.789 127.868 316.189 127.46 316.477 126.948L319.021 128.196C318.765 128.82 318.365 129.372 317.821 129.852C317.277 130.332 316.629 130.708 315.877 130.98C315.141 131.252 314.325 131.388 313.429 131.388ZM328.269 136.38C327.293 136.38 326.389 136.22 325.557 135.9C324.725 135.58 324.005 135.132 323.397 134.556C322.805 133.996 322.373 133.332 322.101 132.564L325.029 131.46C325.221 132.068 325.597 132.556 326.157 132.924C326.733 133.308 327.437 133.5 328.269 133.5C328.909 133.5 329.469 133.38 329.949 133.14C330.445 132.9 330.829 132.548 331.101 132.084C331.373 131.636 331.509 131.092 331.509 130.452V127.476L332.109 128.196C331.661 128.98 331.061 129.572 330.309 129.972C329.557 130.372 328.701 130.572 327.741 130.572C326.525 130.572 325.437 130.292 324.477 129.732C323.517 129.172 322.765 128.404 322.221 127.428C321.677 126.452 321.405 125.356 321.405 124.14C321.405 122.908 321.677 121.812 322.221 120.852C322.765 119.892 323.509 119.14 324.453 118.596C325.397 118.036 326.469 117.756 327.669 117.756C328.645 117.756 329.501 117.964 330.237 118.38C330.989 118.78 331.613 119.364 332.109 120.132L331.677 120.924V118.044H334.653V130.452C334.653 131.588 334.373 132.604 333.813 133.5C333.269 134.396 332.517 135.1 331.557 135.612C330.613 136.124 329.517 136.38 328.269 136.38ZM328.125 127.668C328.797 127.668 329.381 127.524 329.877 127.236C330.389 126.932 330.789 126.516 331.077 125.988C331.365 125.46 331.509 124.852 331.509 124.164C331.509 123.492 331.357 122.892 331.053 122.364C330.765 121.82 330.365 121.396 329.853 121.092C329.357 120.788 328.781 120.636 328.125 120.636C327.469 120.636 326.877 120.788 326.349 121.092C325.821 121.396 325.405 121.82 325.101 122.364C324.813 122.892 324.669 123.492 324.669 124.164C324.669 124.836 324.813 125.436 325.101 125.964C325.405 126.492 325.813 126.908 326.325 127.212C326.853 127.516 327.453 127.668 328.125 127.668ZM337.589 131.1V118.044H340.541V120.948L340.301 120.516C340.605 119.54 341.077 118.86 341.717 118.476C342.373 118.092 343.157 117.9 344.069 117.9H344.837V120.684H343.709C342.813 120.684 342.093 120.964 341.549 121.524C341.005 122.068 340.733 122.836 340.733 123.828V131.1H337.589ZM350.526 131.388C349.614 131.388 348.822 131.236 348.15 130.932C347.478 130.628 346.958 130.196 346.59 129.636C346.222 129.06 346.038 128.396 346.038 127.644C346.038 126.924 346.198 126.284 346.518 125.724C346.838 125.148 347.334 124.668 348.006 124.284C348.678 123.9 349.526 123.628 350.55 123.468L354.822 122.772V125.172L351.15 125.796C350.526 125.908 350.062 126.108 349.758 126.396C349.454 126.684 349.302 127.06 349.302 127.524C349.302 127.972 349.47 128.332 349.806 128.604C350.158 128.86 350.59 128.988 351.102 128.988C351.758 128.988 352.334 128.852 352.83 128.58C353.342 128.292 353.734 127.9 354.006 127.404C354.294 126.908 354.438 126.364 354.438 125.772V122.412C354.438 121.852 354.214 121.388 353.766 121.02C353.334 120.636 352.758 120.444 352.038 120.444C351.366 120.444 350.766 120.628 350.238 120.996C349.726 121.348 349.35 121.82 349.11 122.412L346.542 121.164C346.798 120.476 347.198 119.884 347.742 119.388C348.302 118.876 348.958 118.476 349.71 118.188C350.462 117.9 351.278 117.756 352.158 117.756C353.23 117.756 354.174 117.956 354.99 118.356C355.806 118.74 356.438 119.284 356.886 119.988C357.35 120.676 357.582 121.484 357.582 122.412V131.1H354.606V128.868L355.278 128.82C354.942 129.38 354.542 129.852 354.078 130.236C353.614 130.604 353.086 130.892 352.494 131.1C351.902 131.292 351.246 131.388 350.526 131.388ZM366.205 131.244C364.733 131.244 363.589 130.844 362.773 130.044C361.973 129.228 361.573 128.084 361.573 126.612V120.852H359.317V118.044H359.557C360.197 118.044 360.693 117.876 361.045 117.54C361.397 117.204 361.573 116.716 361.573 116.076V115.068H364.717V118.044H367.717V120.852H364.717V126.444C364.717 126.876 364.789 127.244 364.933 127.548C365.093 127.852 365.333 128.084 365.653 128.244C365.989 128.404 366.413 128.484 366.925 128.484C367.037 128.484 367.165 128.476 367.309 128.46C367.469 128.444 367.621 128.428 367.765 128.412V131.1C367.541 131.132 367.285 131.164 366.997 131.196C366.709 131.228 366.445 131.244 366.205 131.244ZM370.167 131.1V118.044H373.311V131.1H370.167ZM370.167 116.58V113.22H373.311V116.58H370.167ZM382.598 131.388C381.318 131.388 380.15 131.092 379.094 130.5C378.054 129.908 377.222 129.1 376.598 128.076C375.99 127.052 375.686 125.884 375.686 124.572C375.686 123.26 375.99 122.092 376.598 121.068C377.222 120.044 378.054 119.236 379.094 118.644C380.134 118.052 381.302 117.756 382.598 117.756C383.878 117.756 385.038 118.052 386.078 118.644C387.118 119.236 387.942 120.044 388.55 121.068C389.174 122.076 389.486 123.244 389.486 124.572C389.486 125.884 389.174 127.052 388.55 128.076C387.926 129.1 387.094 129.908 386.054 130.5C385.014 131.092 383.862 131.388 382.598 131.388ZM382.598 128.508C383.302 128.508 383.918 128.34 384.446 128.004C384.99 127.668 385.414 127.204 385.718 126.612C386.038 126.004 386.198 125.324 386.198 124.572C386.198 123.804 386.038 123.132 385.718 122.556C385.414 121.964 384.99 121.5 384.446 121.164C383.918 120.812 383.302 120.636 382.598 120.636C381.878 120.636 381.246 120.812 380.702 121.164C380.158 121.5 379.726 121.964 379.406 122.556C379.102 123.132 378.95 123.804 378.95 124.572C378.95 125.324 379.102 126.004 379.406 126.612C379.726 127.204 380.158 127.668 380.702 128.004C381.246 128.34 381.878 128.508 382.598 128.508ZM391.87 131.1V118.044H394.822V120.612L394.582 120.156C394.886 119.372 395.382 118.78 396.07 118.38C396.774 117.964 397.59 117.756 398.518 117.756C399.478 117.756 400.326 117.964 401.062 118.38C401.814 118.796 402.398 119.38 402.814 120.132C403.23 120.868 403.438 121.724 403.438 122.7V131.1H400.294V123.444C400.294 122.868 400.182 122.372 399.958 121.956C399.734 121.54 399.422 121.22 399.022 120.996C398.638 120.756 398.182 120.636 397.654 120.636C397.142 120.636 396.686 120.756 396.286 120.996C395.886 121.22 395.574 121.54 395.35 121.956C395.126 122.372 395.014 122.868 395.014 123.444V131.1H391.87ZM410.626 131.1V113.22H417.298C418.514 113.22 419.586 113.444 420.514 113.892C421.458 114.324 422.194 114.964 422.722 115.812C423.25 116.644 423.514 117.66 423.514 118.86C423.514 120.044 423.242 121.06 422.698 121.908C422.17 122.74 421.442 123.38 420.514 123.828C419.586 124.276 418.514 124.5 417.298 124.5H413.89V131.1H410.626ZM413.89 121.62H417.346C417.938 121.62 418.45 121.508 418.882 121.284C419.314 121.044 419.65 120.716 419.89 120.3C420.13 119.884 420.25 119.404 420.25 118.86C420.25 118.3 420.13 117.82 419.89 117.42C419.65 117.004 419.314 116.684 418.882 116.46C418.45 116.22 417.938 116.1 417.346 116.1H413.89V121.62ZM425.925 131.1V112.932H429.069V131.1H425.925ZM435.932 131.388C435.02 131.388 434.228 131.236 433.556 130.932C432.884 130.628 432.364 130.196 431.996 129.636C431.628 129.06 431.444 128.396 431.444 127.644C431.444 126.924 431.604 126.284 431.924 125.724C432.244 125.148 432.74 124.668 433.412 124.284C434.084 123.9 434.932 123.628 435.956 123.468L440.228 122.772V125.172L436.556 125.796C435.932 125.908 435.468 126.108 435.164 126.396C434.86 126.684 434.708 127.06 434.708 127.524C434.708 127.972 434.876 128.332 435.212 128.604C435.564 128.86 435.996 128.988 436.508 128.988C437.164 128.988 437.74 128.852 438.236 128.58C438.748 128.292 439.14 127.9 439.412 127.404C439.7 126.908 439.844 126.364 439.844 125.772V122.412C439.844 121.852 439.62 121.388 439.172 121.02C438.74 120.636 438.164 120.444 437.444 120.444C436.772 120.444 436.172 120.628 435.644 120.996C435.132 121.348 434.756 121.82 434.516 122.412L431.948 121.164C432.204 120.476 432.604 119.884 433.148 119.388C433.708 118.876 434.364 118.476 435.116 118.188C435.868 117.9 436.684 117.756 437.564 117.756C438.636 117.756 439.58 117.956 440.396 118.356C441.212 118.74 441.844 119.284 442.292 119.988C442.756 120.676 442.988 121.484 442.988 122.412V131.1H440.012V128.868L440.684 128.82C440.348 129.38 439.948 129.852 439.484 130.236C439.02 130.604 438.492 130.892 437.9 131.1C437.308 131.292 436.652 131.388 435.932 131.388ZM451.611 131.244C450.139 131.244 448.995 130.844 448.179 130.044C447.379 129.228 446.979 128.084 446.979 126.612V120.852H444.723V118.044H444.963C445.603 118.044 446.099 117.876 446.451 117.54C446.803 117.204 446.979 116.716 446.979 116.076V115.068H450.123V118.044H453.123V120.852H450.123V126.444C450.123 126.876 450.195 127.244 450.339 127.548C450.499 127.852 450.739 128.084 451.059 128.244C451.395 128.404 451.819 128.484 452.331 128.484C452.443 128.484 452.571 128.476 452.715 128.46C452.875 128.444 453.027 128.428 453.171 128.412V131.1C452.947 131.132 452.691 131.164 452.403 131.196C452.115 131.228 451.851 131.244 451.611 131.244ZM457.085 131.1V120.852H454.781V118.044H457.085V117.612C457.085 116.62 457.285 115.78 457.685 115.092C458.101 114.388 458.677 113.852 459.413 113.484C460.149 113.116 461.021 112.932 462.029 112.932C462.221 112.932 462.429 112.948 462.653 112.98C462.893 112.996 463.093 113.02 463.253 113.052V115.764C463.093 115.732 462.941 115.716 462.797 115.716C462.669 115.7 462.549 115.692 462.437 115.692C461.733 115.692 461.189 115.852 460.805 116.172C460.421 116.476 460.229 116.956 460.229 117.612V118.044H463.133V120.852H460.229V131.1H457.085ZM471.332 131.388C470.052 131.388 468.884 131.092 467.828 130.5C466.788 129.908 465.956 129.1 465.332 128.076C464.724 127.052 464.42 125.884 464.42 124.572C464.42 123.26 464.724 122.092 465.332 121.068C465.956 120.044 466.788 119.236 467.828 118.644C468.868 118.052 470.036 117.756 471.332 117.756C472.612 117.756 473.772 118.052 474.812 118.644C475.852 119.236 476.676 120.044 477.284 121.068C477.908 122.076 478.22 123.244 478.22 124.572C478.22 125.884 477.908 127.052 477.284 128.076C476.66 129.1 475.828 129.908 474.788 130.5C473.748 131.092 472.596 131.388 471.332 131.388ZM471.332 128.508C472.036 128.508 472.652 128.34 473.18 128.004C473.724 127.668 474.148 127.204 474.452 126.612C474.772 126.004 474.932 125.324 474.932 124.572C474.932 123.804 474.772 123.132 474.452 122.556C474.148 121.964 473.724 121.5 473.18 121.164C472.652 120.812 472.036 120.636 471.332 120.636C470.612 120.636 469.98 120.812 469.436 121.164C468.892 121.5 468.46 121.964 468.14 122.556C467.836 123.132 467.684 123.804 467.684 124.572C467.684 125.324 467.836 126.004 468.14 126.612C468.46 127.204 468.892 127.668 469.436 128.004C469.98 128.34 470.612 128.508 471.332 128.508ZM480.605 131.1V118.044H483.557V120.948L483.317 120.516C483.621 119.54 484.093 118.86 484.733 118.476C485.389 118.092 486.173 117.9 487.085 117.9H487.853V120.684H486.725C485.829 120.684 485.109 120.964 484.565 121.524C484.021 122.068 483.749 122.836 483.749 123.828V131.1H480.605ZM489.581 131.1V118.044H492.533V121.068L492.197 120.564C492.437 119.62 492.917 118.916 493.637 118.452C494.357 117.988 495.205 117.756 496.181 117.756C497.253 117.756 498.197 118.036 499.013 118.596C499.829 119.156 500.357 119.892 500.597 120.804L499.709 120.876C500.109 119.836 500.709 119.06 501.509 118.548C502.309 118.02 503.229 117.756 504.269 117.756C505.197 117.756 506.021 117.964 506.741 118.38C507.477 118.796 508.053 119.38 508.469 120.132C508.885 120.868 509.093 121.724 509.093 122.7V131.1H505.949V123.444C505.949 122.868 505.845 122.372 505.637 121.956C505.429 121.54 505.141 121.22 504.773 120.996C504.405 120.756 503.957 120.636 503.429 120.636C502.933 120.636 502.493 120.756 502.109 120.996C501.725 121.22 501.429 121.54 501.221 121.956C501.013 122.372 500.909 122.868 500.909 123.444V131.1H497.765V123.444C497.765 122.868 497.661 122.372 497.453 121.956C497.245 121.54 496.949 121.22 496.565 120.996C496.197 120.756 495.757 120.636 495.245 120.636C494.749 120.636 494.309 120.756 493.925 120.996C493.541 121.22 493.245 121.54 493.037 121.956C492.829 122.372 492.725 122.868 492.725 123.444V131.1H489.581Z" fill="black"/>
<path d="M67.7051 22.2832C68.2784 21.8259 69.1927 21.1855 69.7816 20.8806C70.355 20.5604 70.8354 20.3012 70.8664 20.3012C70.8819 20.3012 71.1918 20.4537 71.5637 20.6214C71.9202 20.8043 72.5245 21.1703 72.912 21.4294C73.2994 21.6886 74.0587 22.3442 74.6011 22.8931C75.1435 23.442 75.9958 24.4025 76.4762 25.0276C76.9566 25.6527 77.9484 27.1621 78.6767 28.3818C79.4051 29.6015 81.0012 32.4831 82.21 34.7853C83.4342 37.0875 84.9529 39.8776 85.5883 40.9601C86.2236 42.0426 87.1689 43.5673 87.6803 44.3144C88.2072 45.0614 89.0285 46.2049 89.5399 46.83C90.0358 47.4551 91.0586 48.5834 91.8024 49.3304C92.5308 50.0775 93.631 51.0838 94.2199 51.5412C94.8243 52.0138 95.7231 52.6542 96.2345 52.9591C97.1643 53.5232 97.1643 53.5232 98.9464 53.5385C99.9227 53.5385 101.457 53.4622 102.356 53.386C103.254 53.2945 104.649 53.0811 105.455 52.9133C106.261 52.7609 107.594 52.4102 108.399 52.151C109.205 51.8918 110.569 51.3735 111.421 50.9923C112.274 50.6264 113.777 49.8641 114.753 49.3152C115.729 48.7511 118.069 47.3332 119.944 46.1592C121.82 44.9852 124.222 43.5673 125.291 42.9879C126.36 42.4238 127.243 42.0121 127.274 42.1036C127.29 42.1799 127.011 42.683 126.654 43.2166C126.298 43.735 125.585 44.6803 125.074 45.3054C124.562 45.9305 123.447 47.2417 122.61 48.2022C121.758 49.1627 119.774 51.3277 118.193 53.0048C116.597 54.6819 111.018 60.2774 105.765 65.4459C100.527 70.5992 91.322 79.4879 85.3093 85.1901C79.2966 90.9075 72.4626 97.4787 70.1226 99.7962C67.7825 102.129 63.7689 106.032 61.212 108.471C58.655 110.911 55.5247 113.792 54.2384 114.89C52.9677 115.973 50.9376 117.634 49.7444 118.565C48.5512 119.495 46.5986 120.943 45.4053 121.782C44.2121 122.62 42.4764 123.794 41.5311 124.389C40.6013 124.968 39.2066 125.822 38.4318 126.264C37.6725 126.706 36.1383 127.529 35.0225 128.109C33.9223 128.673 32.2021 129.496 31.2258 129.938C30.2496 130.365 28.5759 131.067 27.5066 131.494C26.4374 131.905 24.4228 132.622 23.0126 133.079C21.6024 133.537 19.4174 134.177 18.1311 134.512C16.8604 134.832 14.7993 135.305 13.5596 135.549C12.3199 135.793 10.3673 136.144 9.22053 136.311C8.07378 136.479 6.15219 136.723 4.95894 136.845C3.7657 136.967 2.16954 137.119 0 137.287L0.402914 136.616C0.635365 136.25 12.1494 116.217 25.988 92.112C39.842 68.0073 51.6195 47.4551 52.1774 46.4489C52.7353 45.4426 54.0835 42.9422 55.1682 40.8839C56.2685 38.8256 57.7872 36.0508 58.5465 34.7091C59.3059 33.3674 60.4836 31.4159 61.1345 30.3639C61.8008 29.3119 62.8856 27.7415 63.552 26.8572C64.2338 25.9729 65.2101 24.7684 65.737 24.1891C66.2639 23.5944 67.1472 22.7406 67.7051 22.2832Z" fill="black"/>
<path d="M122.656 73.8162C123.633 73.0844 125.105 72.0629 125.911 71.5445C126.716 71.0261 127.398 70.6602 127.414 70.7212C127.445 70.7974 127.026 71.8647 126.484 73.1301C125.926 74.3803 124.841 76.7588 124.051 78.3902C123.261 80.0215 122.362 81.9426 122.036 82.6592C121.711 83.3757 121.2 84.6717 120.905 85.556C120.595 86.4403 120.223 87.6752 120.099 88.3003C119.96 88.9254 119.805 90.2366 119.758 91.1972C119.696 92.2492 119.743 93.5299 119.851 94.3989C119.96 95.1917 120.223 96.5029 120.44 97.2957C120.657 98.0886 120.967 99.1253 121.138 99.5827C121.308 100.04 121.789 101.184 122.207 102.098C122.61 103.013 123.338 104.492 123.834 105.376C124.314 106.261 125.198 107.801 125.802 108.807C126.407 109.813 128.266 112.908 129.94 115.668C131.613 118.427 133.69 121.903 134.542 123.367C135.395 124.831 136.572 126.935 137.177 128.017C137.781 129.1 138.633 130.716 139.083 131.6C139.532 132.485 140.307 134.131 140.818 135.259C141.314 136.388 141.702 137.333 141.686 137.348C141.656 137.378 140.722 137.453 139.597 137.542L139.548 137.546C138.401 137.623 135.86 137.684 133.891 137.699C131.923 137.699 129.149 137.592 127.693 137.47C126.252 137.348 124.113 137.104 122.966 136.936C121.82 136.754 119.867 136.372 118.627 136.083C117.387 135.778 115.543 135.229 114.521 134.848C113.498 134.467 112.103 133.872 111.421 133.537C110.739 133.201 109.732 132.652 109.174 132.317C108.616 131.981 107.609 131.28 106.927 130.762C106.245 130.243 105.114 129.207 104.401 128.459C103.688 127.712 102.728 126.554 102.278 125.883C101.813 125.212 101.1 123.947 100.667 123.062C100.248 122.178 99.6748 120.806 99.4268 120.013C99.1634 119.22 98.8224 117.878 98.652 117.04C98.4815 116.201 98.2645 114.799 98.1716 113.914C98.0941 113.03 98.0166 111.322 98.0166 110.103C98.0166 108.883 98.1251 107.206 98.2491 106.367C98.3885 105.529 98.6365 104.324 98.8069 103.699C98.9929 103.074 99.4113 101.885 99.7367 101.062C100.078 100.254 100.713 98.8509 101.178 97.9361C101.627 97.0366 102.402 95.6491 102.898 94.8563C103.394 94.0635 104.169 92.859 104.649 92.1882C105.13 91.5173 106.106 90.2061 106.834 89.2914C107.547 88.3766 108.74 86.9282 109.469 86.0896C110.182 85.2511 112.212 83.147 113.963 81.4242C115.714 79.7013 117.992 77.5821 119.015 76.7283C120.037 75.8592 121.68 74.5633 122.656 73.8162Z" fill="black"/>
</svg>
